<?xml version="1.0" encoding="utf-8"?>
<!-- Generator: Adobe Illustrator 19.0.0, SVG Export Plug-In . SVG Version: 6.00 Build 0)  -->
<svg version="1.1" id="Layer_1" xmlns="http://www.w3.org/2000/svg" xmlns:xlink="http://www.w3.org/1999/xlink" x="0px" y="0px"
	 viewBox="0 0 395.2 395.2" enable-background="new 0 0 395.2 395.2" xml:space="preserve">
<path id="XMLID_58_" fill="#FFFFFF" d="M197.6,0C88.5,0,0,88.5,0,197.6c0,109.1,88.5,197.6,197.6,197.6
	c109.1,0,197.6-88.5,197.6-197.6C395.2,88.5,306.7,0,197.6,0"/>
<path id="XMLID_57_" fill="#A4CD39" d="M197.5,6.7C92.4,6.7,7.3,92,7.3,197.2c0,105.2,85.1,190.4,190.2,190.4
	c105,0,190.2-85.3,190.2-190.4C387.6,92,302.5,6.7,197.5,6.7"/>
<path id="XMLID_56_" fill="#FFFFFF" d="M59,111.9c0.1-23.7,13-45.3,34.2-61.7c29.9-22,66.5-34.8,105.9-34.5
	c38,0.3,73.2,12.7,102.1,33.7c22.6,17,36.4,39.7,36.2,64.4c-0.2,28-18.1,53-46.5,70.2l0,0c-27.3,16.7-59.3,26.2-93.3,26
	c-40.6-0.3-78-14.5-108-38.1C70.3,155.5,58.8,134.6,59,111.9"/>
<path id="XMLID_52_" fill="#0E0F19" d="M223.5,79.2c7-3.9,8.3-14.2,8.3-17.5c0-14.3-11.1-23.9-30.8-23.9c-7.4,0-15.6,0.9-27.1,3.3v0
	c-0.6,0.1-1,0.7-1,1.3c0,0.1,0,0.2,0,0.3c3,18.3,2.9,46.8,0.4,75.6c0,0.1-0.1,0.2-0.1,0.3c0,0.7,0.5,1.2,1.1,1.3
	c7.1,1.6,21.1,3,28.9,3c18.7,0,32.8-10.3,32.7-25.1C236.1,88.5,231.9,82.9,223.5,79.2 M200.8,55.3c7,0,11.8,3.7,11.9,8.9
	c0.2,10-16.3,8.5-17.6,8.2l-0.1-16.4C194.8,56.1,195.8,55.3,200.8,55.3 M202.6,106.2c-2.7,0-5.2-0.2-7.6-0.8l0-16.8
	c0,0,4-0.5,6.3-0.5c6.1,0,13.7,2.1,13.6,8.3C214.8,101.4,213.2,106.2,202.6,106.2"/>
<path id="XMLID_49_" fill="#0E0F19" d="M123.8,47.7c-8.3,1.9-17.2,4.9-23,7.8l0,0c-1.3,0.5-0.7,1.6-0.7,1.6
	c5.8,13.6,16,59.8,17.5,75.2v0c0,0.1,0,0.2,0,0.3c0.2,0.7,0.9,1.2,1.6,1c0,0,19.3-5.9,19.3-5.9c0.7-0.2,1.2-0.9,1-1.6
	c0,0,0-0.1,0-0.1c-0.1-0.4-0.2-0.9-0.4-1.7l-1-4l-3.2-14.5c0,0,5-1,5.3-1.1c20.9-4.8,32-20.7,28.2-37.5
	C164.4,50.3,146.8,42.4,123.8,47.7 M133.9,87.6c-1.5,0.4-3.2,0.5-3.2,0.5l-4.9-21.6c0,0,3.9-1.3,5.5-1.7c8.2-1.9,14.4,1.8,15.9,8.4
	C148.7,80,144.5,85.2,133.9,87.6"/>
<path id="XMLID_48_" fill="#0E0F19" d="M284.4,71.3c0.2,0.3,1.4,0.9,1.8,0.9c0.6,0,0.8-0.3,0.8-0.3c0,0,0,0,0,0
	c1.2-1-0.1,0.2,10.5-12.3c0.2-0.2,0.3-0.5,0.4-0.8c0.1-0.6-0.4-1.2-0.4-1.2c-0.1,0.1-10.2-9.5-25.1-11.1c-18.5-2-31.6,9.1-32.6,25.3
	C239,85.3,248.3,93,266.5,99c13,4.3,8.6,13.3,0.6,12.9c-5.1-0.2-13-3.8-17.9-8.5c0,0-0.2-0.3-0.7-0.3c-0.5-0.1-0.9,0.1-1.2,0.4
	l-10.5,12.1c0,0-0.3,0.4-0.4,0.7c-0.1,0.7,0.4,1.2,0.4,1.2c7.4,7.7,17.7,12.1,27.8,12.7c17.4,1.1,29.9-9.2,31.2-24.6
	c1.3-16.3-12.7-22.3-22.6-25.6c-8.5-2.8-12.2-5.5-11.8-9.2C261.9,67.1,269.1,61.7,284.4,71.3"/>
<path id="XMLID_47_" fill="#FFFFFF" d="M323.6,211.6c11.2,4.7,24.1-0.6,28.7-11.8c4.7-11.2-0.6-24.1-11.8-28.8
	c-11.2-4.7-24.1,0.6-28.7,11.8C307.1,193.9,312.4,206.9,323.6,211.6"/>
<path id="XMLID_46_" fill="#FFFFFF" d="M279.2,263.6c-0.4-11.1-9.6-19.7-20.7-19.4c-11,0.4-19.7,9.7-19.3,20.7
	c0.4,11.1,9.6,19.7,20.7,19.4C270.9,283.9,279.5,274.6,279.2,263.6"/>
<path id="XMLID_45_" fill="#FFFFFF" d="M176.5,327.6c19.4-4.8,31.3-24.4,26.4-43.8c-4.8-19.4-24.5-31.1-43.9-26.3
	c-19.4,4.8-31.2,24.4-26.4,43.8C137.4,320.6,157.1,332.4,176.5,327.6"/>
<path id="XMLID_42_" fill="#0E0F19" d="M242.5,331.7c5.1-3.6,6.4-10.7,2.7-15.9c-3.6-5.1-10.8-6.4-15.9-2.7
	c-5.1,3.6-6.4,10.7-2.7,15.9c1.8,2.5,4.4,4.1,7.4,4.7C237,334.2,240,333.5,242.5,331.7 M233,324.5c-1.1-1.6-0.7-3.8,0.9-5
	c1.6-1.1,3.9-0.8,5,0.9c1.1,1.6,0.7,3.8-0.9,5c-0.8,0.5-1.7,0.7-2.7,0.6C234.3,325.8,233.5,325.3,233,324.5"/>
<path id="XMLID_41_" fill="#0E0F19" d="M260.7,333.2c-15.2,18.8-40.1,20.9-40.4,20.9l-0.2,0l-0.2,0c-28.9,4.5-51.8-9.6-52-9.7
	c-2-1.3-4.7-0.7-6,1.4c-1.3,2.1-0.7,4.8,1.3,6.1c1,0.6,25.6,15.9,57.8,11c2-0.2,29-2.7,46.4-24.1c0.7-0.8,1-1.7,1-2.7
	c0-1.3-0.5-2.6-1.6-3.5C265,331,262.2,331.3,260.7,333.2"/>
<path id="XMLID_38_" fill="#0E0F19" d="M158,253.2c-10.6,2.6-19.5,9.2-25.1,18.5c-5.5,9.3-7.2,20.2-4.6,30.6
	c5.4,21.7,27.5,34.9,49.2,29.5c10.5-2.6,19.5-9.2,25.1-18.5c5.6-9.3,7.2-20.1,4.6-30.6C201.8,261,179.7,247.8,158,253.2
	 M136.9,300.2c-2-8.2-0.8-16.7,3.6-23.9c4.4-7.3,11.4-12.5,19.7-14.5c17-4.3,34.4,6.1,38.6,23.1c0.6,2.2,0.9,4.4,1,6.6
	c0.2,6-1.3,12-4.5,17.3c-4.4,7.3-11.4,12.5-19.7,14.5C158.4,327.6,141.1,317.2,136.9,300.2"/>
<path id="XMLID_37_" fill="#0E0F19" d="M147.8,310.1c7.2,0.9,13.7-4.1,14.6-11.2c0.9-7.1-4.1-13.7-11.3-14.6
	c-7.1-0.9-13.7,4.1-14.6,11.2C135.6,302.7,140.6,309.2,147.8,310.1"/>
<path id="XMLID_34_" fill="#0E0F19" d="M235.3,265c0.5,13.2,11.5,23.6,24.7,23.1c13.2-0.5,23.5-11.6,23.1-24.8
	c-0.5-13.2-11.5-23.6-24.7-23.1C245.2,240.7,234.8,251.8,235.3,265 M242.4,264.8c-0.3-9.3,7-17.1,16.2-17.4c9.3-0.3,17,7,17.4,16.2
	c0.3,9.3-7,17.1-16.2,17.4C250.5,281.4,242.7,274.1,242.4,264.8"/>
<path id="XMLID_33_" fill="#0E0F19" d="M250.3,275.6c4.8,0.6,9.2-2.8,9.8-7.6c0.6-4.8-2.7-9.2-7.6-9.9c-4.8-0.6-9.2,2.8-9.8,7.6
	C242.1,270.6,245.5,275,250.3,275.6"/>
<path id="XMLID_29_" fill="#0E0F19" d="M301.7,267c-5.2-26.4-20.2-49.3-42.3-64.8h0c0,0-0.1,0-0.1-0.1c-0.9-0.6-1.7-1.2-2.6-1.8
	c-3.3-2.2-6.7-4.1-10.2-5.9c-25.1-13.5-66.3-26.7-160.7,11.8l17.4,16.1L69,234.8l26.5,17.2l-30.8,11.4L93.5,284
	c-9.6,4.9-16.2,14.7-16.5,26.2c-0.3,16.6,12.9,30.5,29.5,30.8c2.5,0.1,4.9-0.2,7.2-0.7c22.2,34.5,64,54.2,106.7,46.4
	c26.5-4.9,49.6-19.7,64.9-41.6C301.3,322.2,307.1,294.5,301.7,267 M106.7,332.4c-11.9-0.2-21.3-10.1-21.1-22
	c0.2-8.7,5.5-16,12.9-19.3c0.3,4.4,0.9,8.8,1.7,13.2c2,10,5.4,19.3,9.9,27.9C109,332.4,107.9,332.5,106.7,332.4 M277.9,340.1
	c-14,20-35,33.5-59.1,37.9c-50.9,9.4-100.5-24.3-110.6-75.2c-3.9-19.6-1.3-38.9,6.2-55.8l134.1-41.4c1.1,0.7,2.2,1.3,3.2,2
	c21.5,14.2,36.1,35.9,41.1,61C297.8,293.8,292.5,319.2,277.9,340.1"/>
<path id="XMLID_28_" fill="#FFFFFF" d="M303.2,224.3c-3.4,5.6-1.7,12.9,3.9,16.2c5.6,3.4,12.8,1.7,16.2-3.9
	c3.4-5.6,1.7-12.9-3.9-16.3C313.9,217,306.6,218.8,303.2,224.3"/>
<path id="XMLID_27_" fill="#0E0F19" d="M186.3,172.3L186.3,172.3l-0.6-3.2l-0.4-5.9l0-0.2l-0.9-18.1l0-0.3l-0.1-5.8l0.3-2.9l0,0
	c0-0.2-0.1-0.3-0.3-0.3c0,0-2.6,0.1-5.1,0.3c-2.5,0.1-5.1,0.2-5.1,0.2c-0.1,0-0.2,0.1-0.3,0.3h0l0,0.1l0.5,2.9l0.5,5.8l0,0.3
	l0.9,18.1l0,0.2l0.2,5.9l-0.3,3.2c0,0,0,0,0,0.1c0,0.2,0.1,0.3,0.3,0.3l0.5,0l9.1-0.4l0.5,0C186.2,172.6,186.3,172.5,186.3,172.3
	C186.3,172.3,186.3,172.3,186.3,172.3"/>
<path id="XMLID_24_" fill="#0E0F19" d="M231.1,155.3c-0.4,11.8-11.5,18.5-22.7,18.1c-2.6-0.1-3.1-0.2-5.6-0.4
	c-2.4-0.2-5.7-0.2-5.7-0.2l-0.5,0c-0.2,0-0.3-0.2-0.3-0.3c0,0,0,0,0-0.1h0l0.6-3.3l0.4-6l0-0.2l0.7-18.5l0-0.3l0-5.9l-0.3-3l0-0.1
	c0-0.2,0.1-0.3,0.3-0.3c0,0,2.3,0.1,3.2,0.1c1.3,0,5.5-0.2,8.3-0.1C221.9,135.4,231.5,143.2,231.1,155.3 M209.8,143.2
	c-0.9,0-1.3,0-2,0.1l-0.1,1.1l0,0.3l-0.7,18.5v0.2l0,2c0.7,0.1,1.2,0.2,1.9,0.3c5.8,0.2,12.2-3.2,12.5-10.1
	C221.6,148.4,215.5,143.4,209.8,143.2"/>
<path id="XMLID_23_" fill="#0E0F19" d="M168.2,172.7L152,157c3.5-4,7.3-7.8,11.3-11.3c0,0,0,0,0,0c0.1-0.1,0.1-0.2,0.1-0.3
	c0-0.1-0.1-0.1-0.1-0.2l-6.5-6.5c-0.1-0.1-0.2-0.1-0.2-0.1c0,0-0.1,0-0.1,0.1c0,0,0,0,0,0c-6.2,5.5-12.1,11.9-17.2,18.6l-1.3-6.9
	l0-0.3l-0.8-5.8l-0.1-2.9l0-0.1c0-0.1-0.2-0.3-0.3-0.2c0,0-2.5,0.5-5,0.9c-2.5,0.4-5,0.9-5,0.9c-0.1,0-0.2,0.2-0.2,0.3v0.1l0.9,2.8
	l1.2,5.7l0,0.3l3.2,17.9l0,0.2l0.9,5.9l0.1,3.3h0c0,0,0,0,0,0c0,0.2,0.2,0.3,0.3,0.3v0l0.5-0.1l9-1.6l0.5-0.1c0.2,0,0.3-0.2,0.2-0.3
	c0,0,0-0.1,0-0.1h0l-1-3.1l-0.7-3.5l0.1-0.2c1.4-2.3,2.9-4.4,4.5-6.6l10.7,11.1v0c0.1,0.1,0.2,0.1,0.2,0.1c0,0,0,0,0,0v0l10.8-2v0
	c0,0,0,0,0,0c0.2,0,0.3-0.2,0.2-0.3C168.3,172.9,168.3,172.8,168.2,172.7"/>
<path id="XMLID_22_" fill="#0E0F19" d="M270.1,168.2c2.2-16.3-22-13.5-21.2-18.8c0.5-3.5,10.2-4.5,17.2,3.4c0,0,0,0,0,0
	c0,0,0.1,0.1,0.2,0.1c0.1,0,0.2,0,0.3-0.1v0c1-1.1,4.8-5.3,5.7-6.2c0,0,0,0,0,0c0,0,0.1-0.1,0.1-0.1c0-0.1,0-0.1,0-0.2l0,0
	c0,0,0,0,0,0c0,0,0,0,0,0c-5.6-9.4-31.1-13.6-33.2,2.1c-2.1,15.2,22.8,14.5,21.6,19.3c-1.1,4.4-13.7,3.4-18.8-4.8
	c-0.1-0.1-0.2-0.1-0.2-0.1c-0.1,0-0.2,0-0.2,0.1c-1.1,0.9-5.6,4.7-6.7,5.7c0,0,0,0,0,0.1c0,0.1-0.1,0.1-0.1,0.2c0,0.1,0,0.2,0.1,0.2
	c0,0,0,0,0,0C244.5,183.2,267.9,184.1,270.1,168.2"/>
</svg>
